<svg xmlns="http://www.w3.org/2000/svg" viewBox="0 0 1802.36 1830.47"><defs><style>.cls-1{fill:#05264E;}.cls-2{fill:#05264E;}.cls-3{fill:#3C65F5;}.cls-4{fill:#fff;}.cls-5{fill:#bababa;}</style></defs><title>Asset 1jobbox</title><g id="Layer_2" data-name="Layer 2"><g id="Blue"><path class="cls-1" d="M606.45,1731.64a3.33,3.33,0,0,1-3.33-3.22l-34-1045.63a3.34,3.34,0,0,1,2.42-3.31l441.17-125.54a3.34,3.34,0,0,1,3.81,1.55l662,1156a3.33,3.33,0,0,1-2.85,5L606.5,1731.64ZM575.83,685.18l33.85,1039.75,1060.16-15L1012,561.07Z"/><path class="cls-2" d="M622.66,1007.12a53.84,53.84,0,0,0-25.09-30.71L618,828.17l-38.46-5.3-20.37,148c-1.49.34-3,.73-4.45,1.2a54.07,54.07,0,1,0,68,35Z"/><path d="M571.2,1081A57.4,57.4,0,0,1,553.69,968.9c.79-.25,1.61-.49,2.47-.72l20.06-145.76a3.33,3.33,0,0,1,3.75-2.85l38.46,5.29a3.37,3.37,0,0,1,2.2,1.29,3.33,3.33,0,0,1,.65,2.47l-20.1,146a57.4,57.4,0,0,1-30,106.32Zm11.17-254.35-19.92,144.7a3.31,3.31,0,0,1-2.55,2.79c-1.54.35-2.91.72-4.19,1.13a50.74,50.74,0,1,0,63.78,32.88h0A50.58,50.58,0,0,0,596,979.32a3.32,3.32,0,0,1-1.68-3.36l20-145Z"/><path class="cls-2" d="M1247.52,807.42a54.08,54.08,0,0,0-68-35c-1.48.47-2.91,1-4.32,1.6L1072.81,665.23l-28.26,26.61,102.59,108.94a54.07,54.07,0,1,0,100.38,6.64Z"/><path d="M1196.05,881.29a57.4,57.4,0,0,1-52.86-79.85L1042.12,694.13a3.35,3.35,0,0,1,.14-4.72l28.26-26.61a3.33,3.33,0,0,1,4.72.14l100.87,107.11c.83-.31,1.64-.59,2.43-.85a57.4,57.4,0,1,1,17.51,112.09ZM1049.26,692l100.31,106.51a3.35,3.35,0,0,1,.59,3.71,50.73,50.73,0,1,0,94.18,6.24h0a50.79,50.79,0,0,0-63.77-32.89c-1.28.41-2.61.9-4.06,1.51a3.34,3.34,0,0,1-3.71-.79L1072.67,669.94Z"/><ellipse class="cls-2" cx="801.7" cy="667.51" rx="397.11" ry="177.05" transform="translate(-165.15 275.73) rotate(-17.72)"/><path d="M625.8,878.39A492.75,492.75,0,0,1,572,875.56c-40.13-4.44-73.58-13.89-99.44-28.1-27.14-14.91-44.73-34.44-52.27-58.05s-4.55-49.72,8.92-77.61c12.82-26.56,34.59-53.66,64.71-80.55,61.61-55,151.42-103.13,252.89-135.56s202.56-45.29,284.64-36.22c40.12,4.43,73.58,13.88,99.43,28.09,27.14,14.91,44.73,34.44,52.28,58.05h0c7.54,23.61,4.54,49.72-8.92,77.61-12.83,26.57-34.6,53.67-64.72,80.55-61.6,55-151.41,103.13-252.89,135.56C776.37,865,696.35,878.39,625.8,878.39ZM977.57,463.3c-69.85,0-149.14,13.3-228.75,38.74-100.6,32.15-189.56,79.81-250.48,134.19-29.46,26.29-50.71,52.7-63.15,78.47-12.7,26.3-15.58,50.76-8.57,72.68s23.54,40.18,49.13,54.24c25.09,13.78,57.71,23,97,27.31a485.22,485.22,0,0,0,53.13,2.8c69.85,0,149.14-13.31,228.75-38.75,100.6-32.15,189.55-79.8,250.47-134.18,29.47-26.3,50.71-52.7,63.16-78.48,12.69-26.3,15.58-50.75,8.57-72.68h0c-7-21.93-23.54-40.18-49.14-54.24-25.08-13.78-57.7-23-97-27.31A485.28,485.28,0,0,0,977.57,463.3Z"/><path class="cls-2" d="M1499.11,321.22,32.72,789.85,4.28,799,14.53,831c20.85,65.24,378.75,9.14,799.39-125.29s744.74-296.29,723.89-361.53l-10.25-32.09Z"/><path d="M107.22,861.58q-9.57,0-18.28-.36c-45.91-1.94-72-11.75-77.58-29.17L1.1,800a3.33,3.33,0,0,1,2.16-4.19L1526.54,309a3.33,3.33,0,0,1,4.19,2.16L1541,343.2c5.57,17.42-10,40.55-46.29,68.76-34,26.46-85.11,56.76-151.78,90.06-136.87,68.35-324.38,141.83-528,206.9s-399,114-550.12,137.64C201.11,856.55,148.22,861.58,107.22,861.58ZM8.47,801.11,17.71,830c4.56,14.27,29.29,22.76,71.51,24.54,42.64,1.79,101.37-3.11,174.57-14.59,150.82-23.63,345.83-72.43,549.12-137.4s390.45-138.31,527-206.52c66.28-33.1,117-63.17,150.67-89.36,33.37-25.93,48.59-47.19,44-61.46l-9.24-28.91-25.27,8.07-1-3.17,1,3.17Z"/><ellipse class="cls-3" cx="765.92" cy="555.54" rx="799.59" ry="124.01" transform="translate(-132.76 259.53) rotate(-17.72)"/><path d="M97,829.49q-9.57,0-18.28-.36C32.77,827.19,6.67,817.38,1.1,800s10-40.55,46.29-68.75c34-26.46,85.11-56.76,151.78-90.06,136.88-68.36,324.38-141.84,528-206.91s399-113.95,550.12-137.64c73.63-11.54,132.81-16.47,175.88-14.65,45.92,1.93,72,11.74,77.58,29.16s-10,40.55-46.29,68.75c-34,26.46-85.1,56.76-151.78,90.06-136.87,68.36-324.38,141.84-528,206.91s-399,113.95-550.12,137.64C190.86,824.45,138,829.49,97,829.49ZM1434.84,288.24c-40.63,0-93.16,5-156.54,14.95-150.82,23.64-345.83,72.43-549.12,137.4s-390.45,138.31-527,206.52c-66.28,33.1-117,63.17-150.67,89.36-33.36,25.94-48.59,47.19-44,61.46S36.74,820.69,79,822.46c42.64,1.8,101.37-3.1,174.57-14.58,150.82-23.64,345.84-72.43,549.12-137.4s390.46-138.31,527-206.52c66.29-33.1,117-63.17,150.67-89.36,33.37-25.94,48.59-47.19,44-61.46h0c-4.56-14.27-29.29-22.75-71.51-24.53Q1444.29,288.25,1434.84,288.24Z"/><path d="M230,750q-6.79,0-13-.23c-38.25-1.41-59.1-9.14-63.73-23.64s7.87-32.88,38.21-56.22c27.89-21.44,69.68-46,124.21-73.11,111.9-55.54,265.11-115.4,431.4-168.54S1072.9,335,1196.27,315.37c60.12-9.58,108.43-13.77,143.59-12.47,38.26,1.41,59.1,9.14,63.74,23.63s-7.87,32.89-38.22,56.22c-27.89,21.45-69.68,46.05-124.21,73.11-111.89,55.55-265.1,115.4-431.4,168.55S484,717.64,360.58,737.29C307.57,745.73,263.74,750,230,750ZM1326.81,309.33c-33.35,0-76.82,4.24-129.49,12.62-123,19.6-282.22,59.6-448.21,112.65S430.25,547.37,318.64,602.76c-54.14,26.88-95.56,51.25-123.1,72.43-18.88,14.52-40.44,34.79-35.93,48.9s33.83,18.13,57.63,19c34.72,1.28,82.6-2.89,142.29-12.4,123.05-19.59,282.23-59.59,448.21-112.64s318.86-112.77,430.47-168.17c54.14-26.87,95.56-51.24,123.11-72.42,18.88-14.52,40.44-34.79,35.93-48.91s-33.84-18.12-57.64-19Q1333.49,309.34,1326.81,309.33Z"/><path class="cls-4" d="M1185,415.87Q797.51,654.37,343.52,684.79A25.54,25.54,0,0,1,316.34,658l6.17-125.42a443.57,443.57,0,0,1,308-400.75h0a443.61,443.61,0,0,1,483.34,147.84l77.76,98.6A25.55,25.55,0,0,1,1185,415.87Z"/><path d="M341.82,688.18A28.87,28.87,0,0,1,313,657.87l6.17-125.42a446.88,446.88,0,0,1,797.29-254.8l77.76,98.6a28.85,28.85,0,0,1-7.5,42.45C1058,498,921.74,560.83,781.89,605.53S494.63,678,343.74,688.11C343.1,688.16,342.46,688.18,341.82,688.18Zm423.68-574h-1.23A440.17,440.17,0,0,0,325.83,532.78L319.67,658.2a22.2,22.2,0,0,0,23.63,23.26c150.35-10.07,297.23-37.76,436.56-82.29S1054.91,492,1183.24,413l1.75,2.84-1.75-2.84a22.21,22.21,0,0,0,5.76-32.65l-77.76-98.6A440.35,440.35,0,0,0,765.5,114.13Z"/><path class="cls-2" d="M1135.61,307.29Q759.37,535.06,320.78,567.7L316.34,658a25.54,25.54,0,0,0,27.18,26.75q454-30.42,841.47-268.92a25.55,25.55,0,0,0,6.63-37.56Z"/><path d="M341.82,688.18A28.87,28.87,0,0,1,313,657.87l4.44-90.34a3.34,3.34,0,0,1,3.08-3.16c145.26-10.81,287.32-38.15,422.24-81.27s266.51-103.23,391.11-178.66a3.33,3.33,0,0,1,4.34.79l56,71a28.85,28.85,0,0,1-7.5,42.45C1058,498,921.74,560.83,781.89,605.53S494.63,678,343.74,688.11C343.1,688.16,342.46,688.18,341.82,688.18ZM324,570.8l-4.3,87.4a22.2,22.2,0,0,0,23.63,23.26c150.35-10.07,297.23-37.76,436.56-82.29S1054.91,492,1183.24,413a22.21,22.21,0,0,0,5.76-32.65l-54.19-68.71c-124.3,75-255.5,134.79-390,177.78S468.72,559.8,324,570.8Z"/><path class="cls-5" d="M1295.83,111v-.24l0,.12,0-.12V111q-4.71,17.1-21.78,24.45,17.07,7.35,21.78,24.44v.24l0-.12s0,.08,0,.12v-.24q4.71-17.1,21.78-24.44Q1300.54,128.12,1295.83,111Z"/><path class="cls-5" d="M1675.58,360.07v-.25c0,.05,0,.08,0,.13l0-.13v.25q-4.71,17.08-21.78,24.44,17.07,7.35,21.78,24.44v.24l0-.12,0,.12V409q4.71-17.08,21.78-24.44Q1680.29,377.16,1675.58,360.07Z"/><path class="cls-5" d="M246.69,1021.58v-.24s0,.08,0,.12l0-.12v.24q-4.71,17.08-21.78,24.44,17.07,7.35,21.78,24.44v.24l0-.12,0,.12v-.24q4.71-17.09,21.78-24.44Q251.4,1038.67,246.69,1021.58Z"/><path class="cls-5" d="M370.76,24.92v-.24l0,.12a.56.56,0,0,0,0-.12v.24Q366,42,348.91,49.37,366,56.72,370.69,73.81v.24a.56.56,0,0,0,0-.12l0,.12v-.24q4.71-17.1,21.78-24.44Q375.47,42,370.76,24.92Z"/><path class="cls-5" d="M96.12,501.89v-.24l0,.12,0-.12v.24Q91.34,519,74.28,526.33q17.06,7.35,21.78,24.44V551l0-.12,0,.12v-.24q4.72-17.09,21.78-24.44Q100.85,519,96.12,501.89Z"/><path class="cls-5" d="M170.62,158.36v-.49a2.33,2.33,0,0,1-.07.25l-.06-.25v.49q-9.44,34.17-43.56,48.88,34.13,14.7,43.56,48.88v.48l.06-.24a2.17,2.17,0,0,1,.07.24v-.48q9.44-34.17,43.56-48.88Q180.06,192.54,170.62,158.36Z"/><path class="cls-5" d="M1582.46.48V0a2.17,2.17,0,0,1-.07.24l-.06-.24V.48q-9.43,34.19-43.56,48.89,34.13,14.7,43.56,48.88v.48l.06-.24a2.17,2.17,0,0,1,.07.24v-.48q9.43-34.18,43.56-48.88Q1591.9,34.66,1582.46.48Z"/><path class="cls-5" d="M1502.49,693.12v-.49c0,.09,0,.16-.07.25,0-.09-.05-.16-.07-.25v.49q-9.42,34.17-43.56,48.88,34.14,14.7,43.56,48.88v.48c0-.08.05-.16.07-.24,0,.08,0,.16.07.24v-.48q9.42-34.18,43.56-48.88Q1511.91,727.29,1502.49,693.12Z"/><ellipse class="cls-5" cx="1142.74" cy="1726.42" rx="539.79" ry="104.05"/><path class="cls-5" d="M98.29,1617.78l-24-75.15,93.41-301.13,104-33.24L348.62,1449l44.65-14.27L419,1515.27l-44.65,14.27L397,1600.33l-93.12,29.76-22.62-70.79Zm119.54-279.47-47.28,167.55L262,1476.62Z"/><path class="cls-5" d="M1458.79,1103.75l8-78.48,206-238.72,108.63,11.09L1755.73,1049l46.63,4.76-8.59,84.17-46.64-4.76-7.54,73.93-97.26-9.93,7.55-73.93Zm221.26-208.42L1569.76,1030l95.54,9.76Z"/><path class="cls-5" d="M919.44,1034.88q58.42-35.13,135.06.75t87,103.25q10.42,67.38-31.27,156.43-42.18,90.09-100.61,125.22t-135-.75Q798,1383.9,787.56,1316.53t31.76-157.46Q861,1070,919.44,1034.88Zm130.17,133.86q1.82-33.54-33.9-50.28t-60.33,6.16q-24.6,22.89-49.08,75.17Q889.8,1235,883.16,1260t-.62,45.15q6,20.19,30.87,31.82t44.2,3.33q19.33-8.29,34.28-29.39t31.41-56.31Q1047.8,1202.29,1049.61,1168.74Z"/></g></g></svg>